<?xml version="1.0" standalone="no"?>
<!DOCTYPE svg PUBLIC "-//W3C//DTD SVG 20010904//EN"
 "http://www.w3.org/TR/2001/REC-SVG-20010904/DTD/svg10.dtd">
<svg version="1.0" xmlns="http://www.w3.org/2000/svg"
 width="256.000000pt" height="256.000000pt" viewBox="0 0 256.000000 256.000000"
 preserveAspectRatio="xMidYMid meet">
<metadata>
Created by potrace 1.14, written by Peter Selinger 2001-2017
</metadata>
<g transform="translate(0.000000,256.000000) scale(0.100000,-0.100000)"
fill="#000000" stroke="none">
<path d="M1975 2513 c-17 -19 -34 -47 -39 -61 -5 -15 -44 -103 -88 -197 -44
-93 -92 -196 -106 -227 -14 -32 -31 -58 -39 -58 -7 0 -13 -5 -13 -12 0 -6 -10
-2 -22 9 -13 11 -33 26 -45 32 -19 9 -24 8 -32 -8 -8 -14 -4 -28 18 -63 16
-25 34 -49 40 -52 7 -5 4 -20 -10 -48 -11 -22 -23 -53 -25 -67 -10 -55 -37
-123 -62 -152 -27 -32 -83 -144 -76 -151 2 -3 -3 -5 -11 -5 -8 0 -11 5 -8 10
4 6 -1 8 -11 4 -11 -5 -15 -3 -10 5 5 7 3 8 -5 4 -7 -5 -10 -14 -7 -22 3 -7
-4 -18 -15 -24 -11 -7 -17 -16 -12 -23 4 -7 0 -6 -10 2 -15 12 -20 11 -35 -7
-12 -14 -23 -18 -32 -12 -8 5 -18 6 -22 4 -4 -3 -8 0 -8 6 0 7 7 9 16 6 14 -5
15 -4 4 9 -10 12 -10 15 4 15 9 0 16 -4 16 -10 0 -5 5 -10 12 -10 9 0 9 3 0
12 -18 18 -15 33 4 17 11 -9 10 -4 -4 22 -11 19 -18 42 -17 52 2 9 -1 15 -5
12 -9 -6 -6 -37 5 -55 11 -18 -5 -31 -25 -20 -15 8 -17 6 -13 -10 3 -12 0 -20
-6 -20 -7 0 -9 -5 -5 -12 5 -9 2 -9 -9 1 -18 14 -23 26 -8 16 5 -3 13 0 17 7
4 7 4 10 -1 6 -4 -4 -15 -2 -23 5 -13 9 -14 9 -8 0 4 -7 2 -14 -3 -14 -6 -1
-15 -3 -21 -4 -5 -1 -15 -3 -22 -4 -7 0 -3 -8 8 -16 10 -8 15 -15 9 -14 -22 3
-29 -2 -15 -11 21 -13 0 -30 -25 -20 -18 8 -18 9 -2 9 10 1 15 6 12 11 -4 7
-12 7 -25 0 -13 -7 -20 -6 -22 2 -5 14 -28 2 -28 -15 0 -7 4 -6 10 3 6 9 10
10 10 3 0 -19 -17 -24 -30 -8 -7 8 -18 15 -24 15 -6 0 -4 -5 4 -10 12 -8 11
-12 -8 -30 -19 -18 -22 -40 -6 -40 3 0 3 4 -1 9 -3 5 -1 12 4 15 10 6 10 -12
0 -29 -4 -5 -5 -17 -4 -26 2 -12 -3 -15 -18 -11 -13 3 -16 7 -9 10 9 3 8 8 -5
18 -10 7 -22 14 -27 14 -6 0 -2 -6 8 -13 16 -12 16 -14 -3 -31 -16 -14 -18
-22 -10 -32 6 -7 8 -18 5 -23 -4 -5 -2 -12 3 -15 14 -9 21 8 11 24 -10 16 5
40 24 40 6 0 4 -5 -4 -10 -12 -7 -13 -13 -3 -28 12 -20 2 -29 -51 -46 -16 -6
-17 -4 -6 9 7 8 8 15 2 15 -8 0 -22 -22 -22 -35 0 -2 35 -15 52 -19 3 0 10 -5
15 -10 5 -5 3 -6 -4 -2 -7 4 -13 3 -13 -3 0 -5 -9 -9 -20 -8 -11 1 -20 7 -20
14 0 7 -3 13 -7 14 -5 0 -18 2 -30 5 -13 2 -23 -1 -23 -6 0 -6 5 -9 11 -8 17
4 19 -29 3 -43 -8 -6 -11 -15 -8 -20 3 -5 0 -9 -7 -9 -7 0 -4 -7 7 -15 17 -13
17 -14 2 -15 -25 0 -23 -16 1 -16 11 0 22 8 24 18 4 12 1 16 -6 11 -7 -4 -7 0
1 9 9 11 9 18 3 23 -7 4 -7 11 2 19 6 8 16 12 21 9 4 -3 2 -9 -5 -14 -11 -6
-10 -11 2 -26 8 -10 14 -24 13 -30 -1 -7 -2 -18 -3 -24 0 -6 -8 -8 -17 -5 -11
4 -15 2 -11 -7 3 -7 -4 -19 -15 -26 -12 -7 -17 -8 -13 -2 3 6 -3 23 -14 37
-12 15 -21 22 -21 15 0 -6 -9 -11 -20 -11 -11 0 -20 -6 -21 -12 -1 -7 -4 -2
-9 12 -5 17 -3 29 8 37 12 10 11 12 -6 10 -14 -1 -19 -7 -16 -22 3 -20 3 -20
-13 0 -9 11 -14 14 -11 5 6 -17 -16 -42 -28 -32 -5 4 -2 -1 5 -10 7 -10 10
-26 6 -40 -6 -18 -5 -20 5 -11 7 6 13 24 13 38 0 19 2 23 8 14 7 -12 9 -12 9
0 0 8 2 12 5 9 6 -6 -23 -65 -36 -73 -5 -4 -7 -11 -4 -16 4 -5 1 -9 -5 -9 -6
0 -9 -4 -5 -10 8 -13 -41 -43 -56 -34 -8 4 -9 3 -5 -5 8 -13 -5 -19 -52 -25
-18 -2 -58 -21 -90 -43 -85 -60 -161 -96 -187 -89 -29 7 -86 -4 -79 -15 8 -13
-10 -11 -25 4 -10 8 -12 9 -7 0 5 -10 -32 -41 -41 -35 -12 8 -13 -1 -2 -15 12
-15 12 -16 -3 -11 -20 8 -18 -19 3 -33 10 -6 5 -8 -16 -6 -16 1 -33 6 -37 12
-4 5 -10 6 -15 2 -4 -5 -1 -12 7 -17 8 -6 12 -10 8 -11 -11 -2 -26 -6 -35 -9
-5 -1 -11 -2 -14 -2 -3 1 -6 -5 -6 -13 0 -8 4 -12 9 -9 4 3 8 0 8 -6 0 -7 9
-9 23 -5 16 5 18 4 8 -4 -12 -8 -12 -12 -2 -24 8 -10 9 -17 1 -22 -5 -3 -10
-1 -10 6 0 7 -2 10 -5 7 -3 -3 -3 -13 1 -22 6 -15 7 -15 19 1 8 10 17 14 22 9
4 -5 2 -11 -4 -13 -7 -3 -13 -9 -13 -15 0 -6 6 -5 15 2 9 7 13 20 10 27 -3 9
0 13 7 10 7 -2 12 -13 11 -25 -3 -25 17 -34 40 -17 16 12 16 13 0 26 -14 12
-16 12 -11 -2 4 -9 1 -16 -7 -16 -7 0 -11 5 -9 11 6 17 -26 54 -32 39 -9 -21
-20 -14 -20 12 0 14 4 25 9 25 5 0 3 8 -4 17 -12 14 -12 16 0 8 10 -5 12 -4 7
3 -5 8 -2 10 8 6 19 -7 20 -16 4 -32 -6 -6 -8 -15 -4 -19 4 -4 12 -1 17 7 9
13 10 12 5 -2 -3 -10 -1 -20 4 -23 6 -4 10 0 10 7 0 7 9 -2 20 -19 20 -34 34
-41 45 -23 10 16 25 1 18 -17 -4 -10 -2 -14 5 -9 6 3 13 2 17 -3 3 -6 -4 -15
-16 -21 -15 -8 -19 -9 -15 -1 4 6 3 18 -1 26 -8 13 -13 12 -38 -7 -17 -13 -31
-30 -33 -38 -2 -8 8 -2 22 13 29 31 53 28 35 -4 -10 -19 -9 -20 10 -9 17 9 22
8 28 -5 5 -13 7 -14 14 -3 7 10 9 9 9 -4 0 -10 5 -18 10 -18 7 0 7 7 0 20 -6
11 -15 18 -21 15 -5 -4 -9 -1 -9 4 0 6 4 11 9 11 5 0 11 8 13 18 3 11 16 18
34 19 24 1 25 0 9 -6 -11 -5 -23 -7 -28 -4 -4 2 -7 0 -7 -6 0 -5 19 -21 42
-35 24 -14 39 -26 33 -26 -5 0 -23 9 -40 20 -41 27 -54 25 -24 -3 13 -13 27
-22 31 -20 4 2 9 -1 13 -7 4 -7 13 -6 28 1 12 7 19 8 15 4 -8 -8 20 -40 28
-32 3 3 -2 16 -10 29 -13 20 -14 25 -2 25 8 0 12 -6 8 -15 -4 -11 -1 -13 8 -7
9 5 11 4 6 -3 -4 -7 -2 -12 4 -12 6 0 3 -12 -7 -27 -13 -19 -14 -28 -5 -31 7
-2 9 -9 6 -15 -5 -8 -2 -8 7 1 7 6 18 12 24 12 5 -1 -1 -10 -14 -20 -13 -11
-19 -20 -14 -20 16 0 42 35 35 46 -4 6 -16 10 -26 8 -18 -3 -18 -2 -1 14 13
13 19 14 22 4 3 -6 8 -10 12 -8 9 6 8 -36 -2 -51 -5 -8 -4 -13 2 -13 6 0 11 4
11 9 0 13 40 9 41 -4 1 -5 2 -18 2 -27 0 -20 17 -19 34 2 10 13 13 13 25 0 7
-9 22 -22 33 -30 16 -11 17 -11 8 0 -8 9 -9 19 -2 31 7 15 6 17 -6 13 -8 -3
-12 -10 -9 -15 3 -5 1 -9 -5 -9 -8 0 -9 12 -2 65 1 6 6 3 11 -5 6 -10 10 -11
10 -2 0 6 5 12 11 12 8 0 8 -5 -1 -15 -10 -12 -9 -16 4 -21 11 -4 13 -10 7
-18 -6 -8 -6 -17 1 -26 8 -13 9 -12 5 2 -7 20 17 43 34 32 9 -5 10 1 6 22 -6
28 -5 27 9 -4 12 -29 17 -32 30 -21 12 10 19 9 35 -8 16 -15 17 -20 5 -20 -8
0 -13 4 -10 8 2 4 -5 7 -16 6 -23 -1 -27 -16 -5 -18 8 -1 19 -2 25 -3 5 0 16
-10 25 -21 9 -12 13 -14 10 -5 -4 11 1 16 15 16 13 0 19 -5 15 -14 -3 -7 0
-10 6 -7 6 4 8 13 5 20 -3 8 0 16 7 18 9 3 8 8 -2 21 -12 14 -12 16 2 10 18
-6 20 -50 5 -71 -5 -6 -5 -14 2 -18 6 -4 9 -1 8 7 -2 7 3 12 10 10 10 -2 10 2
2 18 -9 16 -8 20 5 21 28 3 33 4 41 11 4 5 12 8 18 8 6 0 4 -5 -4 -10 -12 -8
-10 -10 8 -10 13 0 21 4 18 8 -2 4 6 8 19 8 16 0 21 -4 15 -10 -4 -6 -9 -15
-10 -21 -1 -5 -4 -12 -7 -15 -4 -3 -3 1 2 9 6 10 4 12 -5 6 -9 -6 -11 -4 -5 4
6 10 3 11 -13 2 -15 -8 -23 -8 -28 0 -5 8 -10 6 -16 -5 -6 -10 -7 -20 -4 -23
3 -4 6 -1 6 5 0 7 5 12 11 12 5 0 7 -6 3 -12 -4 -7 -4 -10 1 -6 4 4 15 2 24
-5 14 -11 14 -10 2 5 -8 11 -9 18 -3 18 6 0 13 -4 16 -9 5 -8 34 -8 44 -1 3 4
21 7 38 9 8 0 13 5 9 10 -3 5 -1 12 4 15 5 4 13 1 16 -4 5 -8 14 -5 27 7 21
18 21 18 7 -5 -8 -12 -19 -20 -26 -18 -7 3 -15 1 -19 -5 -10 -16 3 -22 24 -10
20 10 40 -1 40 -22 0 -5 3 -11 5 -14 3 -3 4 3 3 14 -5 26 3 35 18 20 8 -6 11
-16 8 -22 -3 -5 2 -4 11 4 9 7 16 21 16 30 -1 13 -2 13 -6 -2 -2 -9 -9 -15
-14 -11 -5 3 -7 9 -4 13 2 5 -9 7 -25 6 -16 -1 -27 1 -24 6 3 5 9 7 14 4 5 -3
11 -1 15 5 4 6 12 7 18 3 19 -12 37 -12 37 -1 0 6 7 4 17 -3 15 -12 16 -12 10
3 -9 25 -2 22 17 -6 15 -24 15 -25 -4 -21 -11 2 -20 -1 -20 -7 0 -5 7 -8 15
-4 8 3 15 0 15 -7 0 -8 4 -7 9 3 6 8 8 17 5 21 -2 4 3 10 12 13 21 8 24 8 24
-5 0 -5 -4 -7 -10 -4 -5 3 -10 1 -10 -5 0 -7 7 -10 15 -6 8 3 19 -3 25 -12 11
-16 11 -16 6 1 -7 22 20 23 32 1 6 -11 11 -13 16 -5 4 6 2 11 -4 11 -6 0 -8 5
-5 10 10 16 27 0 22 -21 -3 -11 -1 -17 4 -13 5 3 9 12 9 20 0 20 20 17 21 -3
0 -11 3 -13 6 -5 2 6 10 9 15 6 7 -4 8 -2 4 4 -4 7 -1 12 9 12 10 0 13 -5 9
-12 -4 -7 -4 -10 1 -6 4 4 15 2 24 -5 14 -11 14 -10 2 6 -15 20 -2 23 19 5 12
-11 12 -10 1 5 -9 11 -10 17 -3 17 7 0 9 7 5 18 -7 16 -6 16 11 -1 20 -19 41
-23 30 -5 -5 7 -3 8 6 3 7 -4 16 -2 21 6 7 11 9 11 9 1 0 -7 -7 -15 -15 -19
-12 -4 -10 -9 11 -19 15 -8 29 -12 32 -9 3 3 1 5 -4 5 -16 0 -14 38 3 44 12 5
13 3 6 -6 -7 -9 -5 -21 3 -38 10 -19 14 -20 14 -7 0 9 5 17 10 17 6 0 10 -8
10 -17 0 -15 2 -14 15 3 13 17 16 17 26 4 9 -13 10 -12 5 3 -3 10 -6 21 -6 23
0 3 -6 2 -12 -3 -17 -10 -58 -11 -58 -1 0 4 8 9 18 9 9 1 24 2 32 3 23 2 49
-24 45 -45 -2 -11 0 -17 6 -14 5 4 7 11 4 16 -4 5 1 12 9 15 22 8 20 24 -2 19
-10 -2 -24 6 -31 16 -11 19 -11 19 14 3 24 -15 25 -15 26 2 0 15 3 13 10 -6
10 -24 11 -24 24 -6 8 10 12 24 8 30 -4 7 -1 6 7 -1 13 -12 46 -1 62 22 5 7 8
7 8 0 0 -22 -22 -37 -57 -38 -7 0 -10 -4 -8 -8 3 -4 -6 -16 -21 -26 -23 -17
-23 -19 -5 -19 11 0 18 3 15 7 -5 9 21 31 28 24 3 -3 16 -8 28 -10 12 -2 19
-1 16 3 -4 4 -12 8 -17 8 -30 4 -31 7 -9 13 17 5 29 2 38 -8 11 -14 11 -14 6
1 -6 18 10 19 35 4 10 -6 12 -5 7 2 -4 7 -3 12 2 12 6 0 13 7 16 16 6 15 4 15
-10 3 -10 -8 -19 -13 -21 -11 -1 1 -4 2 -5 1 -27 -8 -38 -6 -29 5 6 7 7 17 3
22 -4 4 2 2 12 -6 18 -14 19 -13 13 5 -6 18 -6 18 6 4 10 -14 16 -15 30 -4 9
6 13 16 9 20 -4 4 3 3 15 -4 27 -14 36 -14 28 -1 -4 6 4 5 19 -1 20 -10 23
-15 15 -26 -9 -9 -8 -13 0 -13 6 0 11 5 11 12 0 6 3 8 6 5 4 -3 18 2 31 13 13
10 30 17 38 14 7 -3 16 0 20 5 3 6 11 8 17 5 6 -4 8 -2 5 3 -4 6 3 13 15 16
21 6 21 7 3 27 -10 11 -21 17 -24 14 -3 -3 3 -12 14 -21 19 -15 19 -15 -4 -8
-15 5 -21 4 -17 -3 3 -6 1 -14 -5 -18 -8 -5 -9 -3 -4 6 5 9 4 11 -4 6 -6 -4
-9 -12 -6 -17 4 -5 2 -9 -4 -9 -5 0 -12 6 -14 13 -4 10 -6 10 -6 0 -1 -7 -6
-13 -12 -13 -5 0 -8 4 -5 9 4 5 1 12 -4 14 -6 3 -5 4 2 3 7 -2 19 6 26 18 13
20 13 20 6 -3 -8 -30 13 -19 26 13 4 13 15 23 24 23 8 0 13 -4 10 -8 -5 -8 27
-29 45 -29 5 0 8 16 7 35 -3 31 -1 33 15 24 19 -9 26 -21 12 -17 -5 2 -8 -1
-8 -7 0 -5 4 -9 9 -7 5 2 6 -4 2 -13 -3 -9 -2 -13 3 -10 13 7 10 46 -3 64 -9
12 -8 13 3 6 11 -6 13 -4 8 8 -3 10 -2 17 3 17 6 0 10 -7 10 -16 0 -9 5 -12
12 -8 7 5 8 3 2 -7 -13 -21 -15 -49 -4 -49 6 0 9 6 8 13 -2 6 3 11 11 9 11 -2
12 0 3 11 -7 8 -9 17 -5 20 3 4 0 14 -8 23 -13 16 -12 16 8 5 15 -7 20 -17 16
-28 -4 -11 -3 -14 6 -9 15 10 10 39 -9 48 -12 5 -11 7 3 7 11 1 15 6 11 13 -4
7 -3 8 5 4 6 -4 14 0 17 8 3 9 11 16 16 16 6 0 5 -7 -2 -18 -7 -9 0 -4 14 12
26 27 26 29 9 46 -10 10 -22 15 -28 12 -5 -3 -4 1 2 9 11 13 9 20 -10 37 -13
12 -26 19 -30 16 -3 -3 -18 3 -32 14 -15 12 -33 18 -42 15 -12 -5 -14 -3 -8 8
7 11 5 11 -10 -1 -17 -14 -18 -13 -12 4 6 15 4 17 -13 13 -11 -3 -18 -1 -14 4
5 9 2 10 -51 14 -52 4 -88 16 -165 58 -76 40 -120 73 -120 89 0 18 -73 72
-102 75 -17 2 -57 23 -90 48 -33 25 -65 45 -71 46 -7 0 -22 2 -34 3 -12 1 -19
-2 -16 -7 3 -5 0 -7 -8 -5 -8 3 -13 11 -12 17 2 6 0 10 -5 10 -19 -3 -23 2
-12 16 11 13 10 14 -3 9 -12 -4 -20 2 -27 21 -6 15 -7 31 -4 37 4 6 0 15 -7
20 -11 8 -11 9 3 5 9 -3 23 2 32 12 21 23 20 30 -1 25 -11 -2 -26 6 -37 23
-11 14 -13 23 -6 18 10 -6 12 -4 6 11 -5 10 -8 25 -8 32 1 6 2 28 3 47 0 19 5
32 10 29 5 -3 9 1 9 9 0 8 13 31 30 52 31 39 64 117 76 181 4 21 19 55 34 74
39 51 70 106 75 131 2 12 6 23 7 24 2 1 34 5 73 9 62 6 84 16 85 39 0 10 -18
16 -60 20 -23 2 -34 8 -32 17 2 7 -3 17 -10 21 -9 6 1 35 40 116 51 107 132
307 132 327 0 6 13 26 29 44 28 31 49 101 37 121 -3 5 -19 13 -34 19 -25 8
-31 6 -57 -25z m-734 -1126 c-10 -9 -11 -8 -5 6 3 10 9 15 12 12 3 -3 0 -11
-7 -18z m-211 -131 c0 -2 -8 -10 -17 -17 -16 -13 -17 -12 -4 4 13 16 21 21 21
13z m-95 -185 c3 -5 2 -12 -3 -15 -5 -3 -9 1 -9 9 0 17 3 19 12 6z m-49 -109
c-13 -13 -17 -13 -31 -2 -16 13 -15 15 1 27 13 10 21 10 31 1 12 -10 12 -14
-1 -26z m-47 4 c9 -11 7 -15 -8 -19 -14 -3 -17 0 -14 14 6 23 7 23 22 5z
m-502 -288 c-3 -8 -6 -5 -6 6 -1 11 2 17 5 13 3 -3 4 -12 1 -19z m34 5 c13
-16 12 -17 -3 -4 -10 7 -18 15 -18 17 0 8 8 3 21 -13z m-79 -17 c7 4 8 2 4 -4
-4 -6 -13 -9 -21 -6 -8 4 -12 11 -8 17 5 8 8 7 11 -1 2 -7 9 -9 14 -6z m-44
-31 c-1 -12 -8 -22 -15 -22 -8 0 -9 4 -3 12 6 7 6 15 -1 22 -6 6 -5 10 5 10
10 0 15 -9 14 -22z m107 5 c-3 -5 -12 -10 -18 -10 -7 0 -6 4 3 10 19 12 23 12
15 0z m1982 -12 c-3 -8 -6 -5 -6 6 -1 11 2 17 5 13 3 -3 4 -12 1 -19z m32 -1
c8 -10 7 -14 -4 -14 -8 0 -15 6 -15 14 0 7 2 13 4 13 2 0 9 -6 15 -13z m-2084
-16 c3 -5 2 -12 -3 -15 -5 -3 -9 1 -9 9 0 17 3 19 12 6z m2140 -11 c17 -18 17
-20 2 -14 -9 3 -17 10 -17 16 0 5 -5 6 -12 2 -7 -4 -8 -3 -4 4 9 16 10 15 31
-8z m-2255 -41 c0 -11 -29 -19 -34 -10 -3 5 -3 10 -1 13 8 7 35 5 35 -3z m159
-4 c3 -3 -7 -4 -23 -1 -16 3 -31 8 -35 11 -3 3 7 4 23 1 16 -3 31 -8 35 -11z
m-69 -11 c0 -2 -7 -4 -15 -4 -8 0 -15 4 -15 10 0 5 7 7 15 4 8 -4 15 -8 15
-10z m2204 -6 c4 3 4 -1 1 -10 -6 -15 -8 -15 -26 0 -24 21 -24 26 0 13 10 -6
21 -7 25 -3z m-2194 -24 c0 -8 5 -12 10 -9 6 3 10 1 10 -4 0 -18 -19 -12 -30
9 -7 14 -7 20 0 20 5 0 10 -7 10 -16z m160 -10 c0 -8 -19 -13 -24 -6 -3 5 1 9
9 9 8 0 15 -2 15 -3z m-65 -14 c3 -6 -1 -7 -9 -4 -18 7 -21 14 -7 14 6 0 13
-4 16 -10z m86 -53 c-6 -8 -8 -17 -4 -20 3 -4 1 -7 -5 -7 -15 0 -15 13 0 28
16 16 23 15 9 -1z m59 3 c0 -5 -5 -10 -11 -10 -5 0 -7 5 -4 10 3 6 8 10 11 10
2 0 4 -4 4 -10z m1810 4 c0 -8 -19 -13 -24 -6 -3 5 1 9 9 9 8 0 15 -2 15 -3z
m-1799 -51 c13 -16 12 -17 -3 -4 -17 13 -22 21 -14 21 2 0 10 -8 17 -17z
m1756 -3 c-3 -11 0 -20 6 -20 6 0 8 -3 4 -6 -11 -12 -25 6 -20 26 3 11 8 20
10 20 3 0 3 -9 0 -20z m-1731 -15 c-3 -8 0 -15 6 -15 6 0 9 -3 5 -6 -10 -11
-26 6 -20 21 3 8 7 15 10 15 3 0 3 -7 -1 -15z m79 5 c3 -5 1 -10 -4 -10 -6 0
-11 5 -11 10 0 6 2 10 4 10 3 0 8 -4 11 -10z m20 -30 c-4 -6 -1 -18 6 -26 6
-8 9 -17 5 -21 -3 -3 -6 -1 -6 6 0 7 -4 10 -9 7 -4 -3 -7 5 -6 17 3 26 3 27
11 27 3 0 2 -5 -1 -10z m1455 -15 c0 -2 -9 -3 -19 -2 -11 0 -18 5 -15 9 4 6
34 0 34 -7z m-1500 -35 c5 0 7 7 4 15 -4 8 -1 15 6 15 6 0 9 -4 5 -9 -3 -5 3
-16 13 -23 19 -13 37 -38 28 -38 -2 0 -12 7 -21 16 -15 16 -16 16 -13 -1 2
-10 -2 -20 -9 -22 -8 -3 -11 3 -8 16 3 18 -6 27 -18 19 -10 -7 -35 25 -30 38
4 12 8 11 20 -6 8 -11 18 -20 23 -20z m221 13 c13 -16 12 -17 -3 -4 -10 7 -18
15 -18 17 0 8 8 3 21 -13z m1318 4 c8 -10 7 -17 -1 -25 -15 -15 -39 3 -31 24
7 18 17 18 32 1z m-1338 -24 c13 -17 13 -17 -6 -3 -11 8 -22 16 -24 17 -2 2 0
3 6 3 6 0 17 -8 24 -17z m62 -8 c-6 -17 -29 -20 -37 -6 -3 5 2 8 12 7 9 0 16
5 14 12 -1 8 2 11 7 7 6 -3 8 -12 4 -20z m1023 -1 c1 -9 0 -13 -4 -10 -3 4 -7
14 -8 22 -1 9 0 13 4 10 3 -4 7 -14 8 -22z m-1149 0 c-3 -3 -12 -4 -19 -1 -8
3 -5 6 6 6 11 1 17 -2 13 -5z m1110 -16 c2 -17 0 -19 -7 -8 -5 8 -6 18 -4 22
8 12 10 10 11 -14z m-955 -8 c4 -29 1 -35 -17 -36 -14 -1 -21 5 -21 17 0 10 4
15 8 13 4 -3 8 0 8 5 0 14 19 14 22 1z m98 6 c0 -3 -4 -8 -10 -11 -5 -3 -10
-1 -10 4 0 6 5 11 10 11 6 0 10 -2 10 -4z m135 -5 c3 -5 2 -12 -3 -15 -5 -3
-9 1 -9 9 0 17 3 19 12 6z m685 -1 c0 -5 -2 -10 -4 -10 -3 0 -8 5 -11 10 -3 6
-1 10 4 10 6 0 11 -4 11 -10z m-270 -20 c-12 -22 -12 -22 -52 -24 -16 -1 -28
2 -28 6 0 4 7 8 16 8 8 0 13 4 10 8 -3 5 1 9 9 9 8 0 12 -4 9 -9 -3 -4 1 -8 9
-8 8 0 17 7 21 15 3 8 8 15 11 15 3 0 1 -9 -5 -20z m-434 -17 c-2 -3 -8 -5
-13 -5 -4 0 -14 -4 -21 -10 -9 -8 -11 -7 -6 6 3 9 10 16 16 16 5 0 6 6 2 13
-5 8 -2 7 9 -2 10 -8 15 -16 13 -18z m283 13 c9 -11 9 -16 -1 -22 -7 -4 -10
-4 -6 1 4 4 3 14 -3 22 -6 7 -9 13 -6 13 2 0 10 -6 16 -14z m39 -22 c-4 -3
-12 5 -18 18 -12 22 -12 22 6 6 10 -10 15 -20 12 -24z m22 26 c0 -5 -2 -10 -4
-10 -3 0 -8 5 -11 10 -3 6 -1 10 4 10 6 0 11 -4 11 -10z m117 -5 c0 -8 -6 -16
-14 -19 -11 -4 -11 -1 -3 14 13 24 17 25 17 5z"/>
<path d="M870 974 c0 -8 5 -12 10 -9 6 4 8 11 5 16 -9 14 -15 11 -15 -7z"/>
<path d="M2116 311 c-4 -5 -2 -12 3 -15 5 -4 12 -2 15 3 4 5 2 12 -3 15 -5 4
-12 2 -15 -3z"/>
<path d="M870 239 c0 -5 5 -7 10 -4 6 3 10 8 10 11 0 2 -4 4 -10 4 -5 0 -10
-5 -10 -11z"/>
<path d="M957 1704 c-3 -5 4 -16 16 -23 12 -8 19 -10 15 -6 -4 5 -2 15 5 24
10 14 10 14 -5 3 -13 -10 -17 -10 -20 0 -3 7 -7 8 -11 2z"/>
<path d="M926 1683 c-3 -4 -1 -12 5 -20 9 -10 8 -13 -5 -13 -9 0 -16 -4 -16
-8 0 -4 9 -8 20 -8 11 0 20 6 20 14 0 7 5 10 10 7 18 -11 11 -34 -9 -30 -31 6
-34 -23 -4 -37 24 -12 30 -36 8 -30 -5 1 1 -7 15 -19 24 -21 24 -21 3 -15 -14
5 -23 3 -23 -3 0 -6 3 -10 8 -10 18 3 35 -2 29 -8 -4 -3 -1 -16 6 -27 19 -31
21 -80 2 -72 -22 8 -18 -2 5 -14 11 -6 19 -7 18 -3 -5 18 14 53 25 47 7 -3 2
3 -10 14 -13 11 -23 26 -23 34 0 8 -6 20 -12 27 -11 12 -9 13 7 7 19 -6 19 -6
1 8 -24 20 -34 106 -11 106 8 0 15 -4 15 -10 0 -5 5 -10 11 -10 5 0 8 4 4 9
-3 6 3 15 12 21 13 8 15 13 5 16 -7 3 -19 12 -27 21 -13 13 -15 12 -13 -8 2
-12 -3 -24 -11 -27 -8 -2 -11 -1 -8 4 6 11 -48 45 -57 37z m96 -45 c-7 -7 -12
-8 -12 -2 0 14 12 26 19 19 2 -3 -1 -11 -7 -17z m-51 -45 c13 -17 13 -17 -6
-3 -11 8 -22 16 -24 17 -2 2 0 3 6 3 6 0 17 -8 24 -17z"/>
<path d="M1040 1600 c0 -5 5 -10 10 -10 6 0 10 -5 10 -11 0 -6 -7 -9 -15 -5
-12 4 -13 2 -6 -13 7 -12 6 -22 -2 -31 -10 -12 -9 -12 5 -1 10 7 15 17 12 23
-3 5 5 6 19 3 14 -4 28 -2 32 4 3 7 3 11 -2 10 -21 -4 -32 3 -38 21 -7 21 -25
28 -25 10z"/>
<path d="M1376 1563 c3 -46 -4 -73 -18 -73 -6 0 -6 6 2 15 7 9 11 17 9 18 -2
1 -13 9 -24 17 -18 14 -19 14 -6 -2 7 -10 11 -24 8 -33 -4 -8 -2 -17 4 -20 5
-4 7 -10 5 -14 -3 -4 8 -8 24 -8 18 0 30 6 30 14 0 7 -5 13 -11 13 -5 0 -7 -6
-3 -12 6 -10 4 -10 -7 0 -21 19 4 40 28 21 10 -7 15 -9 11 -5 -4 5 -4 14 2 20
6 8 2 12 -12 13 -31 3 -40 24 -20 48 9 11 13 17 8 13 -5 -4 -15 -3 -21 2 -9 8
-11 1 -9 -27z"/>
<path d="M1466 1564 c-8 -22 -4 -25 11 -9 7 8 9 16 4 19 -5 3 -12 -1 -15 -10z"/>
<path d="M1154 1555 c-4 -10 -13 -13 -25 -10 -14 5 -17 1 -16 -21 3 -32 39
-51 57 -29 8 10 7 13 -2 12 -33 -1 -49 4 -43 14 4 6 14 8 22 5 8 -3 11 -2 8 3
-3 6 2 14 11 19 11 6 13 11 5 16 -6 4 -14 0 -17 -9z"/>
<path d="M915 1529 c-4 -5 -4 -13 -1 -16 3 -4 6 0 6 8 0 11 2 11 10 -1 6 -9
10 -10 10 -3 0 17 -17 25 -25 12z"/>
<path d="M1468 1533 c-11 -3 -15 -10 -11 -20 5 -11 3 -14 -6 -8 -10 6 -11 3
-1 -15 13 -25 18 -23 23 9 2 12 10 27 18 32 15 9 6 10 -23 2z"/>
<path d="M1246 1478 c3 -5 10 -6 15 -3 13 9 11 12 -6 12 -8 0 -12 -4 -9 -9z"/>
<path d="M1133 1454 c1 -21 6 -30 15 -27 16 7 15 15 -3 39 -13 18 -14 17 -12
-12z"/>
<path d="M1173 1454 c-8 -21 8 -36 27 -24 12 8 12 10 -3 16 -9 3 -14 10 -11
15 3 5 3 9 -1 9 -3 0 -8 -7 -12 -16z"/>
<path d="M1210 1460 c0 -5 5 -10 11 -10 5 0 7 5 4 10 -3 6 -8 10 -11 10 -2 0
-4 -4 -4 -10z"/>
<path d="M1376 1441 c-4 -5 -2 -12 3 -15 5 -4 12 -2 15 3 4 5 2 12 -3 15 -5 4
-12 2 -15 -3z"/>
<path d="M1157 1413 c-13 -12 -7 -22 12 -20 15 1 17 4 9 14 -12 15 -13 15 -21
6z"/>
<path d="M1039 1393 c-13 -16 -12 -17 4 -4 9 7 17 15 17 17 0 8 -8 3 -21 -13z"/>
<path d="M1095 1400 c-3 -5 -1 -10 4 -10 6 0 11 5 11 10 0 6 -2 10 -4 10 -3 0
-8 -4 -11 -10z"/>
<path d="M1016 1358 c3 -4 11 -5 19 -1 21 7 19 12 -4 10 -11 0 -18 -5 -15 -9z"/>
<path d="M990 1336 c0 -8 5 -18 10 -21 6 -3 10 3 10 14 0 12 -4 21 -10 21 -5
0 -10 -6 -10 -14z"/>
<path d="M1614 1338 c-4 -7 -3 -10 1 -5 5 4 18 -1 29 -10 21 -18 21 -18 2 5
-22 26 -23 26 -32 10z"/>
<path d="M943 1314 c1 -21 27 -23 27 -2 0 5 -4 7 -9 4 -5 -4 -11 0 -14 6 -3 7
-4 3 -4 -8z"/>
<path d="M1020 1323 c0 -12 28 -38 34 -32 2 2 -5 13 -15 23 -11 11 -19 15 -19
9z"/>
<path d="M854 1256 c1 -8 5 -18 8 -22 4 -3 5 1 4 10 -1 8 -5 18 -8 22 -4 3 -5
-1 -4 -10z"/>
<path d="M895 1260 c-3 -5 -1 -10 4 -10 6 0 11 5 11 10 0 6 -2 10 -4 10 -3 0
-8 -4 -11 -10z"/>
<path d="M1593 1255 c0 -8 4 -12 9 -9 5 3 6 10 3 15 -9 13 -12 11 -12 -6z"/>
<path d="M1693 1225 c0 -8 4 -12 9 -9 5 3 6 10 3 15 -9 13 -12 11 -12 -6z"/>
<path d="M950 1220 c0 -5 5 -10 10 -10 6 0 10 5 10 10 0 6 -4 10 -10 10 -5 0
-10 -4 -10 -10z"/>
<path d="M1650 1220 c0 -5 5 -10 11 -10 5 0 7 5 4 10 -3 6 -8 10 -11 10 -2 0
-4 -4 -4 -10z"/>
<path d="M756 1207 c3 -10 9 -15 12 -12 3 3 0 11 -7 18 -10 9 -11 8 -5 -6z"/>
<path d="M1575 1210 c-4 -6 -12 -7 -18 -4 -7 4 -8 3 -4 -1 13 -15 34 -14 34 1
0 17 -4 18 -12 4z"/>
<path d="M1560 1120 c-8 -15 -8 -18 3 -14 8 3 14 11 14 19 0 20 -4 19 -17 -5z"/>
<path d="M1613 1126 c0 -15 22 -15 34 0 4 5 4 6 -1 2 -5 -4 -14 -3 -21 2 -8 7
-12 5 -12 -4z"/>
<path d="M856 1121 c-3 -4 6 -7 19 -7 14 0 22 2 19 5 -8 8 -34 10 -38 2z"/>
<path d="M756 1093 c-6 -14 -5 -15 5 -6 7 7 10 15 7 18 -3 3 -9 -2 -12 -12z"/>
<path d="M889 1083 c-13 -16 -12 -17 4 -4 9 7 17 15 17 17 0 8 -8 3 -21 -13z"/>
<path d="M1622 1084 c10 -10 20 -16 22 -13 3 3 -5 11 -17 18 -21 13 -21 12 -5
-5z"/>
<path d="M1586 1082 c-3 -5 1 -9 9 -9 8 0 12 4 9 9 -3 4 -7 8 -9 8 -2 0 -6 -4
-9 -8z"/>
<path d="M1660 1086 c0 -2 8 -10 18 -17 15 -13 16 -12 3 4 -13 16 -21 21 -21
13z"/>
<path d="M954 1035 c0 -13 3 -22 7 -19 8 4 6 30 -2 38 -3 3 -5 -5 -5 -19z"/>
<path d="M707 1039 c7 -7 15 -10 18 -7 3 3 -2 9 -12 12 -14 6 -15 5 -6 -5z"/>
<path d="M915 1000 c3 -5 8 -10 11 -10 2 0 4 5 4 10 0 6 -5 10 -11 10 -5 0 -7
-4 -4 -10z"/>
<path d="M727 978 c2 -5 13 -8 24 -8 10 0 19 3 19 8 0 4 -11 7 -24 7 -13 0
-22 -3 -19 -7z"/>
<path d="M747 940 c3 -11 9 -17 15 -14 5 3 4 12 -3 20 -16 19 -18 18 -12 -6z"/>
<path d="M706 922 c-3 -5 1 -9 9 -9 8 0 12 4 9 9 -3 4 -7 8 -9 8 -2 0 -6 -4
-9 -8z"/>
<path d="M180 621 c0 -6 4 -13 10 -16 6 -3 7 1 4 9 -7 18 -14 21 -14 7z"/>
<path d="M115 510 c-3 -6 1 -7 9 -4 18 7 21 14 7 14 -6 0 -13 -4 -16 -10z"/>
<path d="M2417 472 c-3 -4 -1 -16 4 -27 6 -16 8 -16 8 -3 1 9 6 18 13 20 8 3
6 7 -5 11 -9 3 -18 3 -20 -1z"/>
<path d="M194 435 c1 -8 6 -18 11 -22 4 -4 5 -3 2 4 -4 6 -2 13 5 15 8 3 6 6
-4 10 -10 4 -15 2 -14 -7z"/>
<path d="M269 423 c-13 -16 -12 -17 4 -4 16 13 21 21 13 21 -2 0 -10 -8 -17
-17z"/>
<path d="M315 370 c-3 -6 1 -7 9 -4 18 7 21 14 7 14 -6 0 -13 -4 -16 -10z"/>
<path d="M363 373 c-19 -7 -16 -22 5 -18 9 1 26 -2 37 -8 11 -6 27 -10 35 -9
9 2 5 -5 -9 -16 -18 -14 -21 -21 -11 -27 8 -5 11 -4 7 1 -3 6 3 16 15 23 18
11 19 10 13 -11 -6 -22 -5 -22 9 2 13 22 13 27 -2 43 -8 10 -21 16 -28 13 -6
-2 -17 1 -24 7 -10 9 -11 9 -6 0 4 -7 2 -13 -3 -13 -6 0 -11 5 -11 10 0 11 -7
12 -27 3z m99 -31 c12 -15 11 -16 -4 -4 -9 8 -22 11 -27 8 -5 -4 -12 -3 -15 2
-10 16 33 10 46 -6z"/>
<path d="M375 329 c-4 -6 -5 -12 -2 -15 2 -3 7 2 10 11 7 17 1 20 -8 4z"/>
<path d="M670 280 c0 -5 5 -10 11 -10 5 0 7 5 4 10 -3 6 -8 10 -11 10 -2 0 -4
-4 -4 -10z"/>
<path d="M2030 281 c0 -5 5 -13 11 -16 6 -4 8 -14 5 -22 -3 -8 -1 -11 4 -8 13
8 6 48 -8 53 -7 2 -12 -1 -12 -7z"/>
<path d="M555 261 c-3 -5 0 -13 6 -17 7 -4 9 -3 5 4 -3 5 0 13 6 15 9 4 10 6
1 6 -6 1 -14 -3 -18 -8z"/>
<path d="M2070 261 c0 -10 19 -25 25 -20 1 2 -3 10 -11 17 -8 7 -14 8 -14 3z"/>
<path d="M736 252 c-10 -10 -6 -20 10 -26 8 -3 12 -2 9 3 -3 5 -1 12 5 16 9 6
14 -7 11 -27 0 -5 4 -8 9 -8 12 0 13 10 1 29 -10 15 -36 23 -45 13z"/>
<path d="M2016 245 c-9 -26 -7 -32 5 -12 6 10 9 21 6 23 -2 3 -7 -2 -11 -11z"/>
<path d="M733 205 c0 -8 4 -12 9 -9 5 3 6 10 3 15 -9 13 -12 11 -12 -6z"/>
<path d="M1270 205 c0 -8 2 -15 4 -15 2 0 6 7 10 15 3 8 1 15 -4 15 -6 0 -10
-7 -10 -15z"/>
<path d="M1600 213 c5 -2 10 -11 10 -18 0 -8 4 -17 10 -20 6 -4 7 2 1 16 -4
13 -13 24 -20 25 -6 1 -7 0 -1 -3z"/>
<path d="M820 206 c0 -2 8 -10 18 -17 15 -13 16 -12 3 4 -13 16 -21 21 -21 13z"/>
<path d="M1076 182 c-2 -4 4 -8 14 -8 10 0 16 4 14 8 -3 4 -9 8 -14 8 -5 0
-11 -4 -14 -8z"/>
<path d="M1160 180 c-9 -6 -10 -10 -3 -10 6 0 15 5 18 10 8 12 4 12 -15 0z"/>
</g>
</svg>
